<svg xmlns="http://www.w3.org/2000/svg" xmlns:xlink="http://www.w3.org/1999/xlink" aria-hidden="true" role="img" class="iconify iconify--twemoji" width="31.88" height="32" preserveAspectRatio="xMidYMid meet" viewBox="0 0 72 72"><path fill="#FF5C00" d="M36 0c-19.882 0-36 16.118-36 36s16.118 36 36 36 36-16.118 36-36-16.118-36-36-36zM36 67c-17.2 0-31-13.8-31-31s13.8-31 31-31 31 13.8 31 31-13.8 31-31 31z"></path><path fill="#00B2FF" d="M36 9c-14.85 0-27 12.15-27 27s12.15 27 27 27 27-12.15 27-27-12.15-27-27-27zM36 55c-10.5 0-19-8.5-19-19s8.5-19 19-19 19 8.5 19 19-8.5 19-19 19z"></path><path fill="#00B2FF" d="M36 25c-6.1 0-11 4.9-11 11s4.9 11 11 11 11-4.9 11-11-4.9-11-11-11zM36 35c-2.8 0-5-2.2-5-5s2.2-5 5-5 5 2.2 5 5-2.2 5-5 5z"></path></svg>
